<svg width="800" height="800" xmlns="http://www.w3.org/2000/svg">

 <g>
  <title>Layer 1</title>
  <path stroke="#000" id="svg_2" d="m25.65164,502.83333c0,0 164.91774,-1.36296 164.91774,-2.04443c0,0.68148 72.23669,-275.99869 72.23669,-276.68017c0,0.68148 10.90365,-15.674 21.8073,0.68148c10.90365,16.35548 84.5033,174.45843 84.5033,173.77695c0,0.68148 89.95513,-173.77695 89.95513,-174.45843c0,0.68148 1.36296,-15.674 14.99252,-4.77035c13.62956,10.90365 76.32556,282.13199 76.32556,281.45052c0,0.68148 203.08052,2.04443 201.71756,2.04443c-1.36296,0 110.39948,-121.30313 -35.43687,-248.05808c-145.83634,-126.75495 -316.20591,-174.45843 -374.81303,-186.72504c-58.60713,-12.26661 -242.60626,-73.59965 -295.76156,125.392c-53.1553,198.99165 -20.44435,309.39112 -20.44435,309.39112z" fill="#2180fc"/>
  <path stroke="#000" id="svg_3" d="m26.33333,539.04992c0,0 206.44634,-1.39246 206.44634,-2.0887c0,0.69623 47.10856,-178.93167 47.10856,-179.6279c0,0.69623 78.05242,116.73493 78.97612,117.66324c0.9237,0.92831 9.23697,20.88697 24.93983,-4.17739c15.70285,-25.06436 72.04839,-111.39715 72.04839,-112.09338c0,0.69623 49.87965,176.14674 49.87965,175.45051c0,0.69623 160.72333,4.87363 188.43425,2.78493c27.71092,-2.0887 -145.94417,111.62922 -146.86787,112.09338c-0.9237,0.46415 -117.7714,98.86497 -307.5912,103.04236c-189.81979,4.17739 -213.37407,-213.04704 -213.37407,-213.04704z" fill="#b6d6ff"/>
 </g>
</svg>